HIERARCHY
ROOT hip
{
	OFFSET 0.000000 0.000000 0.000000 
	CHANNELS 6 Xposition Yposition Zposition Xrotation Zrotation Yrotation
	JOINT abdomen
	{
		OFFSET 0.000000 3.402643 0.000000 
		CHANNELS 3 Xrotation Zrotation Yrotation
		JOINT chest
		{
			OFFSET 0.000000 8.438565 -0.680529 
			CHANNELS 3 Xrotation Zrotation Yrotation
			JOINT neck
			{
				OFFSET 0.000000 10.207942 -0.272212 
				CHANNELS 3 Xrotation Zrotation Yrotation
				JOINT head
				{
					OFFSET 0.000000 3.130431 0.000000 
					CHANNELS 3 Xrotation Zrotation Yrotation
					End Site
					{
						OFFSET 0.000000 3.130435 0.000000 
					}
				}
			}
			JOINT lCollar
			{
				OFFSET 3.470700 6.669187 -0.816635 
				CHANNELS 3 Yrotation Zrotation Xrotation
				JOINT lShldr
				{
					OFFSET 3.198488 0.000000 0.000000 
					CHANNELS 3 Zrotation Yrotation Xrotation
					JOINT lForeArm
					{
						OFFSET 10.139888 0.000000 0.000000 
						CHANNELS 3 Yrotation Zrotation Xrotation
						JOINT lHand
						{
							OFFSET 8.370511 0.000000 0.000000 
							CHANNELS 3 Zrotation Yrotation Xrotation
							End Site
							{
								OFFSET 4.083176 0.000000 0.000000 
							}
						}
					}
				}
			}
			JOINT rCollar
			{
				OFFSET -3.470700 6.669187 -0.816635 
				CHANNELS 3 Yrotation Zrotation Xrotation
				JOINT rShldr
				{
					OFFSET -3.198488 0.000000 0.000000 
					CHANNELS 3 Zrotation Yrotation Xrotation
					JOINT rForeArm
					{
						OFFSET -10.139888 0.000000 0.000000 
						CHANNELS 3 Yrotation Zrotation Xrotation
						JOINT rHand
						{
							OFFSET -8.370511 0.000000 0.000000 
							CHANNELS 3 Zrotation Yrotation Xrotation
							End Site
							{
								OFFSET -4.083176 0.000000 0.000000 
							}
						}
					}
				}
			}
		}
	}
	JOINT lThigh
	{
		OFFSET 5.308129 -1.633274 1.361059 
		CHANNELS 3 Xrotation Zrotation Yrotation
		JOINT lShin
		{
			OFFSET -2.041588 -20.007561 0.000000 
			CHANNELS 3 Xrotation Zrotation Yrotation
			JOINT lFoot
			{
				OFFSET 0.000000 -19.190928 -1.224953 
				CHANNELS 3 Xrotation Yrotation Zrotation
				End Site
				{
					OFFSET 0.000000 -2.449906 4.627600 
				}
			}
		}
	}
	JOINT rThigh
	{
		OFFSET -5.308129 -1.633274 1.361059 
		CHANNELS 3 Xrotation Zrotation Yrotation
		JOINT rShin
		{
			OFFSET 2.041588 -20.007561 0.000000 
			CHANNELS 3 Xrotation Zrotation Yrotation
			JOINT rFoot
			{
				OFFSET 0.000000 -19.190928 -1.224953 
				CHANNELS 3 Xrotation Yrotation Zrotation
				End Site
				{
					OFFSET 0.000000 -2.449906 4.627600 
				}
			}
		}
	}
}
MOTION
Frames: 15
Frame Time: 0.016667
-1.020526 38.721989 -3.281672 -10.055285 -1.580082 -18.884584 31.599272 -3.210671 2.132127 -13.465355 -7.286087 2.834358 4.177884 3.815514 4.658906 3.689810 2.542873 3.919953 -7.862276 -5.594368 -0.009628 -59.285065 10.026332 13.561809 -126.412308 3.081989 39.275475 -0.454225 21.210264 -0.171631 19.434265 4.156908 -0.009893 61.559055 -17.469749 5.078839 94.509308 -2.134579 25.261570 4.877452 21.180607 1.758784 -17.776667 5.046549 4.518514 42.866306 -0.536744 -3.199919 -15.293372 -6.713111 -14.184687 2.059603 -15.007705 -10.864712 58.808155 -0.481770 3.779826 -6.820956 -0.444313 12.126320 
-1.028591 38.776592 -2.775896 -10.015647 -1.614068 -18.220539 31.605772 -3.112818 2.258893 -13.264758 -7.558675 2.915585 5.177882 3.730086 4.228221 2.517855 3.363578 3.296799 -7.764619 -5.584618 -0.009630 -59.249649 8.194873 13.404306 -127.461258 3.110504 39.611488 -0.253668 22.490034 -0.093390 19.395142 3.785820 -0.009836 62.756989 -17.402388 4.365561 89.934517 -2.183395 26.530899 4.785180 23.988789 1.944255 -17.180933 4.646264 4.167429 42.837116 -0.526870 -3.194848 -16.181002 -6.828933 -14.336368 0.272920 -14.920815 -10.629939 61.634308 -0.666955 3.856170 -4.295543 -2.465496 11.992697 
-1.036656 38.831200 -2.270134 -9.986488 -1.648048 -17.556501 31.602940 -3.014967 2.385675 -13.066278 -7.831137 3.005268 6.170091 3.663879 3.787162 1.334746 4.165500 2.643936 -7.676726 -5.574868 -0.009632 -59.197727 6.355496 13.238029 -128.511765 3.127285 39.950317 -0.053354 23.769522 -0.019681 19.356018 3.414732 -0.009779 63.955284 -17.314224 3.657083 85.365486 -2.347754 27.790026 4.705511 26.797081 2.125888 -16.579466 4.257311 3.811244 42.817955 -0.526836 -3.184211 -17.053535 -6.954210 -14.496291 -1.513998 -14.819586 -10.407500 64.479469 -0.852641 3.934097 -1.775866 -4.488537 11.950926 
-1.073536 38.902126 -1.807203 -9.943844 -1.487083 -16.724613 31.770588 -3.102997 2.288147 -13.096407 -7.626745 2.945912 7.392889 3.069952 3.648327 0.096239 4.996248 2.225379 -7.559554 -5.662778 -0.009633 -59.467751 4.304586 12.890950 -129.279877 3.104714 39.726971 0.665422 23.250647 0.257034 19.678234 3.102180 -0.009710 64.704834 -17.866024 2.828146 81.907433 -2.464664 30.131424 4.429963 28.775846 2.128958 -16.029202 3.748504 3.285826 42.622337 -0.536638 -3.188082 -17.721279 -7.090625 -14.629283 -3.437215 -14.711403 -10.399218 66.906029 -1.005465 3.987209 -1.696526 -5.232025 11.900733 
-1.110413 38.973049 -1.344296 -9.893728 -1.333730 -15.893118 31.938528 -3.191030 2.190630 -13.128247 -7.422260 2.894955 8.618748 2.485597 3.499577 -1.147673 5.827294 1.777280 -7.442382 -5.750689 -0.009635 -59.717628 2.253561 12.560506 -130.042374 3.096962 39.503590 1.397510 22.718538 0.543192 20.000448 2.779863 -0.009640 65.469910 -18.420849 1.975270 78.455742 -2.708172 32.463676 4.148706 30.754208 2.125070 -15.476994 3.251527 2.764760 42.427406 -0.549481 -3.173674 -18.391495 -7.244100 -14.797733 -5.370832 -14.615481 -10.382006 69.380875 -1.171721 4.036840 -1.623077 -5.953153 11.849312 
-1.152834 38.985424 -0.885420 -9.852573 -1.310861 -15.053062 32.162842 -2.985779 2.346671 -13.009373 -7.568030 2.974952 9.508496 2.106295 3.097917 -2.383098 6.434305 1.130199 -7.754870 -5.692042 -0.009629 -59.689556 0.283097 12.622599 -130.550613 3.098572 39.656441 2.897578 22.240358 1.089532 20.147049 3.512261 -0.009749 65.098709 -19.601305 1.036329 77.538689 -2.984854 36.755421 3.725746 31.566999 1.954881 -15.043792 2.948328 2.386649 42.613216 -0.546254 -3.171780 -19.245981 -7.347642 -14.972871 -7.196816 -14.333485 -10.403027 70.686943 -1.259401 4.048580 -1.500292 -3.920376 11.951985 
-1.195256 38.997803 -0.426558 -9.810882 -1.287542 -14.203019 32.388268 -2.780552 2.502739 -12.871902 -7.723515 3.054976 10.403112 1.716848 2.696735 -3.633511 7.040779 0.472397 -8.068314 -5.632025 -0.019245 -59.662735 -1.682889 12.681398 -131.060715 3.106037 39.812305 4.395155 21.738760 1.634004 20.283884 4.254427 -0.009859 64.760208 -20.784872 0.085606 76.643997 -3.324782 41.049500 3.290375 32.368950 1.771545 -14.594118 2.654931 2.024427 42.807095 -0.530055 -3.213970 -20.110693 -7.425571 -15.138469 -9.010860 -14.055535 -10.432901 72.011017 -1.357395 4.090603 -1.379508 -1.917917 12.037739 
-1.286314 39.022491 0.052804 -9.945105 -1.064750 -13.225049 32.680561 -2.966623 2.170622 -12.588216 -7.101181 2.765329 10.465776 1.200297 2.188042 -3.977007 7.099599 -0.098114 -8.067398 -5.858005 -0.009619 -59.777889 -3.532904 12.748276 -131.724228 3.148027 40.322235 4.642963 21.595631 1.714115 20.547604 4.547354 -0.009890 63.959087 -22.177134 0.424050 77.397255 -3.381587 41.831089 5.105142 30.994404 2.618437 -13.862773 2.420920 2.022336 42.856525 -0.539738 -3.200548 -20.770245 -7.988442 -15.458555 -10.290790 -13.774781 -10.325556 71.699196 -1.347770 4.075671 -0.999555 0.379699 12.139084 
-1.377373 39.047184 0.532166 -10.083591 -0.830306 -12.237713 32.975327 -3.142915 1.838529 -12.302215 -6.478322 2.485768 10.527678 0.673535 1.689681 -4.321793 7.167484 -0.668621 -8.067438 -6.092379 -0.009614 -59.886990 -5.387698 12.817956 -132.382706 3.174082 40.829773 4.886160 21.443319 1.783278 20.820313 4.843750 0.000000 63.148918 -23.566706 0.787449 78.148911 -3.418900 42.617886 6.876805 29.587675 3.411761 -13.129216 2.196401 2.016585 42.905258 -0.546437 -3.205395 -21.430893 -8.513022 -15.765765 -11.569308 -13.481195 -10.234561 71.348900 -1.317935 4.063092 -0.588194 2.649441 12.202935 
-1.481360 39.091572 1.038984 -9.986915 -0.699002 -11.329058 32.993530 -3.104370 1.525433 -11.978526 -6.148042 2.150421 10.337457 0.956706 1.494421 -4.358860 6.747432 -0.776467 -8.340910 -6.297411 -0.009604 -59.610634 -6.513528 12.620083 -133.120834 3.184163 40.960857 5.049188 21.604067 1.857592 20.654297 4.921875 -0.000838 62.465263 -24.605999 2.313245 78.902962 -3.163799 39.117947 9.646288 27.060080 4.361063 -12.497530 2.216257 2.041535 42.885521 -0.530132 -3.208090 -22.158936 -9.208916 -16.208231 -12.662995 -13.130280 -10.456191 69.526711 -1.191164 4.039302 -1.125052 4.267316 12.298292 
-1.585346 39.135960 1.545807 -9.897652 -0.557083 -10.410703 33.011101 -3.075484 1.212337 -11.658737 -5.817410 1.815150 10.145292 1.230148 1.308921 -4.394492 6.337142 -0.883237 -8.614383 -6.502444 -0.009593 -59.333988 -7.632100 12.424935 -133.842621 3.183666 41.078194 5.212265 21.754858 1.928322 20.488283 5.000000 -0.000851 61.754436 -25.623323 3.870397 79.672691 -2.946255 35.627720 12.311229 24.504610 5.164569 -11.864329 2.236322 2.066616 42.866306 -0.536740 -3.199914 -22.885994 -9.891483 -16.642241 -13.745878 -12.767930 -10.675141 67.704544 -1.064463 4.011105 -1.662511 5.893445 12.424023 
-1.687363 39.144085 2.039943 -9.726141 -0.452214 -9.853899 33.012318 -3.056320 0.830980 -11.323237 -5.281563 1.431413 9.368894 1.054433 1.260091 -3.775564 6.307898 -0.854122 -8.585097 -6.570808 -0.009593 -59.160995 -8.463954 12.005019 -134.641861 3.155340 40.630459 3.969023 22.579288 1.510115 20.244141 4.482422 -0.000763 61.341934 -26.056107 5.993460 79.531914 -2.857159 34.289703 8.444994 24.947021 3.575313 -11.326385 2.177350 1.962896 42.866009 -0.530108 -3.207138 -23.710064 -10.102356 -16.906439 -14.734982 -12.390963 -10.691577 64.723808 -0.849603 3.936424 -3.077614 7.242220 12.653657 
-1.789380 39.152210 2.534082 -9.563980 -0.337317 -9.287292 33.013199 -3.046781 0.449622 -10.993965 -4.735553 1.038072 8.592944 0.878707 1.220859 -3.157741 6.278635 -0.834711 -8.565578 -6.639170 -0.009592 -58.982262 -9.303773 11.594890 -135.432312 3.134264 40.187801 2.709227 23.395000 1.069683 20.000635 3.961504 -0.009829 60.905220 -26.471544 8.135475 79.389496 -2.756546 32.955280 4.548433 25.301195 1.948242 -10.784867 2.127362 1.877514 42.865646 -0.530119 -3.216823 -24.530663 -10.310545 -17.185699 -15.716950 -11.986001 -10.705116 61.742466 -0.654128 3.848791 -4.497592 8.567098 12.941619 
-1.889734 39.165882 3.061773 -9.506422 -0.337484 -9.111514 33.234562 -2.978506 0.146286 -11.343934 -4.228160 0.743767 8.144154 0.820089 1.338033 -2.559094 6.191025 -0.638436 -8.438624 -6.639192 -0.009595 -59.089832 -9.181496 12.028439 -135.827408 3.138383 40.376247 3.975497 23.027014 1.551663 20.039658 3.697826 -0.009785 60.563389 -27.288141 9.715536 79.939583 -2.725938 32.615479 1.501478 25.676117 0.642936 -10.025614 2.040460 1.498028 42.865948 -0.536750 -3.209597 -25.311378 -9.964560 -17.214006 -16.176647 -11.537885 -10.583344 57.435574 -0.370971 3.710830 -5.356201 9.181250 13.140098 
-1.990086 39.179550 3.589464 -9.437581 -0.347296 -8.935736 33.444920 -2.900381 -0.146791 -11.689368 -3.720588 0.449539 7.685111 0.751711 1.455209 -1.952332 6.103327 -0.450826 -8.321439 -6.648978 -0.009598 -59.199127 -9.063088 12.469769 -136.216736 3.146226 40.558399 5.238641 22.639282 2.023417 20.068911 3.434149 -0.009741 60.196487 -28.096231 11.310695 80.494049 -2.708021 32.280811 -1.558365 25.987532 -0.689286 -9.250882 1.970932 1.135319 42.865646 -0.530121 -3.216822 -26.084177 -9.622169 -17.239882 -16.625904 -11.069646 -10.467039 53.128391 -0.079997 3.547051 -6.244396 9.763421 13.360417 
